<svg xmlns="http://www.w3.org/2000/svg" viewBox="0 0 55.017 55.017"><path d="M51.688 23.013H40.789a1 1 0 100 2h9.102l2.899 27H2.268l3.403-27h9.118a1 1 0 100-2H3.907L0 54.013h55.017l-3.329-31z"/><path d="M17.48 45.164c-.586.275-1.183.53-1.774.759a1 1 0 10.721 1.866 29.865 29.865 0 001.903-.813 1 1 0 00.48-1.33.997.997 0 00-1.33-.482zm19.118-7.591a1 1 0 00.998.959l.042-.001 2.002-.082a1 1 0 00.954-1.044c-.025-.553-.504-1.004-1.045-.954l-1.993.082a.999.999 0 00-.958 1.04zm-5.171-.402a1 1 0 10.418 1.956 23.245 23.245 0 011.886-.313.998.998 0 00.869-1.115.987.987 0 00-1.115-.869c-.723.089-1.416.204-2.058.341zm-8.994 5.006c-.514.388-1.045.761-1.58 1.107a1 1 0 001.09 1.678 29.36 29.36 0 001.695-1.188c.44-.333.528-.96.196-1.401a1.004 1.004 0 00-1.401-.196zM9.994 48.842c.216.057.436.098.653.124.256.031.512.047.769.047.312 0 .626-.022.939-.062a.999.999 0 10-.25-1.984 4.891 4.891 0 01-1.215.015 3.368 3.368 0 01-.396-.075.996.996 0 00-1.218.718.998.998 0 00.718 1.217zm36.694-16.079a1 1 0 101.91.592c.099-.317.16-.64.183-.964a3.985 3.985 0 00-.247-1.64 1.001 1.001 0 00-1.875.695c.086.232.13.466.13.694l-.004.116a2.21 2.21 0 01-.097.507zM10.201 41a1 1 0 00.476-.121c.29-.157.597-.255.913-.289.135-.016.273-.016.406.002a.993.993 0 001.122-.86 1 1 0 00-.86-1.122 3.643 3.643 0 00-.891-.008 4.445 4.445 0 00-1.644.52A1 1 0 0010.201 41zm33.172-4.891a1 1 0 10.405 1.959c.844-.174 1.528-.451 2.072-.835.059-.039.114-.08.169-.122.436-.339.479-.941.14-1.378-.337-.435-1.002-.49-1.438-.149-.342.239-.77.406-1.348.525zM8.86 43.401a.999.999 0 10-1.93-.522 6.687 6.687 0 00-.233 1.753c0 .197.009.395.028.592a1 1 0 001.991-.204 3.618 3.618 0 01-.019-.389 4.658 4.658 0 01.163-1.23zM44.698 27.81a5.918 5.918 0 00-2.386.18 1 1 0 00.543 1.924 3.934 3.934 0 011.575-.121.993.993 0 001.125-.857 1 1 0 00-.857-1.126zM26.655 38.968c-.147.087-.307.165-.447.256-.219.142-.432.29-.641.441a1 1 0 001.178 1.617 10.67 10.67 0 011.562-.959.993.993 0 00.464-1.271c.008-.008.018-.014.026-.023 1.809-1.916 7.905-9.096 10.429-21.058.512-2.426.627-4.754.342-6.918-.86-6.575-4.945-10.051-11.813-10.051-6.866 0-10.951 3.476-11.813 10.051-.284 2.166-.169 4.493.343 6.918 2.499 11.85 8.503 19.004 10.37 20.997zm1.1-33.735c4.051 0 7.346 3.295 7.346 7.346s-3.295 7.346-7.346 7.346-7.346-3.295-7.346-7.346 3.295-7.346 7.346-7.346z"/></svg>