<svg height="512" width="512" xmlns="http://www.w3.org/2000/svg"><path d="M357.258 293.645c2.142-2.899-.446-6.899-3.968-6.133-17.727 3.855-54.608 12.776-71.06 23.419-22.077 14.284-26.23 43.876-26.23 43.876s28.694 8.34 50.771-5.943c16.452-10.644 39.705-40.63 50.487-55.219zm-202.516 0c-2.142-2.899.446-6.899 3.968-6.133 17.727 3.855 54.608 12.776 71.06 23.419 22.077 14.283 26.23 43.875 26.23 43.875s-28.694 8.34-50.771-5.943c-16.452-10.643-39.705-40.629-50.487-55.218z" fill="#8fddc1"/><path d="M327.244 504.497H184.756a21.501 21.501 0 01-20.485-14.969l-28.71-90.037H376.44l-28.71 90.037a21.503 21.503 0 01-20.486 14.969z" fill="#ddb7a0"/><path d="M312.749 399.491l-28.71 90.037a21.5 21.5 0 01-20.485 14.969h63.69a21.501 21.501 0 0020.485-14.969l28.71-90.037z" fill="#d6a889"/><path d="M388.968 416.409H123.032c-8.339 0-15.1-6.76-15.1-15.1 0-8.339 6.76-15.1 15.1-15.1h265.937c8.339 0 15.1 6.76 15.1 15.1-.001 8.34-6.761 15.1-15.101 15.1z" fill="#cc9675"/><path d="M388.968 386.21h-48.251v15.1c0 8.339-6.76 15.1-15.1 15.1h63.35c8.339 0 15.1-6.76 15.1-15.1.001-8.34-6.759-15.1-15.099-15.1z" fill="#c4845c"/><g fill="#ffd064"><path d="M256 282.753c-12.89 0-23.339-10.449-23.339-23.339V30.842c0-12.89 10.449-23.339 23.339-23.339 12.89 0 23.339 10.449 23.339 23.339v228.572c0 12.89-10.449 23.339-23.339 23.339z"/><path d="M158.684 242.444c-9.115-9.115-9.115-23.892 0-33.007L320.309 47.812c9.115-9.115 23.892-9.115 33.007 0 9.115 9.115 9.115 23.892 0 33.007L191.691 242.444c-9.115 9.114-23.892 9.114-33.007 0z"/><path d="M118.375 145.128c0-12.89 10.449-23.339 23.339-23.339h228.572c12.89 0 23.339 10.449 23.339 23.339 0 12.89-10.449 23.339-23.339 23.339H141.714c-12.89 0-23.339-10.449-23.339-23.339z"/><path d="M158.684 47.812c9.115-9.115 23.892-9.115 33.007 0l161.625 161.625c9.115 9.115 9.115 23.892 0 33.007-9.115 9.115-23.892 9.115-33.007 0L158.684 80.819c-9.114-9.115-9.114-23.892 0-33.007z"/></g><path d="M203.049 272.159c-11.898-4.959-17.522-18.625-12.563-30.522L278.428 30.66c4.959-11.898 18.625-17.522 30.522-12.563 11.898 4.959 17.522 18.625 12.563 30.522l-87.942 210.977c-4.959 11.898-18.624 17.523-30.522 12.563z" fill="#ffe07d"/><path d="M128.734 197.511c-4.906-11.92.779-25.56 12.699-30.466l211.368-86.999c11.92-4.906 25.56.779 30.466 12.699 4.906 11.92-.779 25.56-12.699 30.466L159.199 210.21c-11.919 4.906-25.559-.779-30.465-12.699z" fill="#ffe07d"/><path d="M128.969 92.177c4.959-11.898 18.625-17.522 30.522-12.563l210.977 87.942c11.898 4.959 17.522 18.625 12.563 30.522-4.959 11.898-18.625 17.522-30.522 12.563L141.532 122.7c-11.898-4.96-17.523-18.625-12.563-30.523z" fill="#ffe07d"/><path d="M203.617 17.862c11.92-4.906 25.56.779 30.466 12.699l86.999 211.368c4.906 11.92-.779 25.56-12.699 30.466-11.92 4.906-25.56-.779-30.466-12.699L190.918 48.327c-4.906-11.919.779-25.559 12.699-30.465z" fill="#ffe07d"/><circle cx="256" cy="145.128" fill="#f4fbff" r="97.316"/><path d="M256 47.812a97.146 97.146 0 00-32.728 5.647c37.645 13.442 64.588 49.406 64.588 91.669s-26.943 78.227-64.588 91.669A97.137 97.137 0 00256 242.444c53.746 0 97.316-43.57 97.316-97.316S309.746 47.812 256 47.812z" fill="#e4f6ff"/><path d="M388.968 378.707H263.503v-14.791c16.179 2.206 33.47.224 47.344-8.752a7.503 7.503 0 10-8.152-12.598c-12.826 8.297-28.75 7.664-37.683 6.392 2.477-8.656 8.392-23.379 21.293-31.726 13.034-8.433 41.077-15.985 59.033-20.222-5.841 7.625-12.318 15.661-18.666 22.872a7.503 7.503 0 0011.264 9.914c8.625-9.8 17.532-21.104 25.355-31.691 2.851-3.857 3.01-8.95.407-12.974-2.604-4.026-7.318-5.968-12.002-4.95-20.111 4.374-56.408 13.367-73.541 24.452-5.989 3.875-10.794 8.686-14.652 13.767v-29.074a30.927 30.927 0 0018.402-13.179c8.38 5.795 19.289 7.32 29.334 3.187 10.19-4.195 16.931-13.255 18.658-23.392 10.331 2.342 21.218-.686 28.724-8.192 7.613-7.613 10.467-18.345 8.332-28.294 10.028-1.825 18.823-8.463 23.003-18.49 3.17-7.604 3.188-15.987.053-23.605a31.1 31.1 0 00-3.38-6.13c8.713-5.504 14.499-15.236 14.499-26.102 0-10.767-5.569-20.377-14.11-25.905 5.82-8.415 7.305-19.328 3.187-29.334-4.195-10.19-13.255-16.93-23.392-18.658 2.28-10.058-.505-21.037-8.192-28.725-7.613-7.613-18.345-10.466-28.293-8.332-1.826-10.026-8.461-18.823-18.49-23.003-9.988-4.163-21.111-2.778-29.736 3.327C276.597 5.786 266.866 0 256 0c-10.767 0-20.376 5.569-25.905 14.11-8.415-5.82-19.328-7.304-29.334-3.187-10.064 4.142-16.907 13.027-18.676 23.387-10.053-2.273-21.024.513-28.707 8.196-7.613 7.613-10.467 18.345-8.332 28.293-10.026 1.825-18.823 8.461-23.003 18.49-4.169 10.001-2.77 21.122 3.327 29.736-8.713 5.504-14.499 15.236-14.499 26.102 0 10.767 5.569 20.376 14.11 25.905-5.82 8.415-7.305 19.328-3.187 29.334 4.142 10.064 13.025 16.906 23.388 18.675-2.273 10.053.513 21.024 8.196 28.707 7.227 7.227 17.737 10.582 28.309 8.307 1.803 9.964 8.453 18.852 18.475 23.029 10.136 4.225 21.246 2.683 29.736-3.327 4.198 6.645 10.855 11.583 18.599 13.555v29.087c-3.858-5.081-8.663-9.893-14.652-13.767-17.133-11.085-53.43-20.078-73.542-24.452-4.686-1.017-9.397.925-12.001 4.95-2.603 4.025-2.444 9.118.407 12.974 12.232 16.551 35.31 45.973 52.445 57.059 13.877 8.978 31.162 10.958 47.344 8.752v14.792H123.032c-12.463 0-22.602 10.139-22.602 22.602s10.139 22.602 22.602 22.602h12.441l21.65 67.896C160.974 503.885 172.079 512 184.756 512h142.488c12.677 0 23.782-8.115 27.633-20.192l21.65-67.896h12.441c12.463 0 22.602-10.139 22.602-22.602.001-12.464-10.139-22.603-22.602-22.603zm-179.664-36.142c-13.034-8.433-31.414-30.914-42.638-45.555 17.956 4.238 45.996 11.789 59.028 20.221 12.825 8.297 18.773 23.082 21.275 31.753-8.909 1.289-24.763 1.927-37.665-6.419zm-43.117-197.437c0-49.523 40.29-89.813 89.813-89.813s89.813 40.29 89.813 89.813-40.29 89.813-89.813 89.813-89.813-40.29-89.813-89.813zm-28.397 15.326c-6.912-1.758-11.913-8.016-11.913-15.326 0-7.571 5.469-14.062 12.74-15.515l.027.012 13.023 5.428a105.518 105.518 0 00-.486 10.075c0 3.239.156 6.443.445 9.608-16.32 6.735-12.311 5.041-13.836 5.718zm236.42-30.652c6.912 1.758 11.913 8.016 11.913 15.326 0 7.571-5.47 14.062-12.741 15.515l-.027-.012-13.023-5.429c.318-3.317.486-6.676.486-10.075 0-3.239-.156-6.443-.445-9.608 16.321-6.734 12.312-5.04 13.837-5.717zm-68.683 135.655c-8.092 3.331-17.34-.521-20.672-8.617l-4.06-9.864a104.195 104.195 0 0029.277-12.085l4.072 9.893c3.324 8.075-.542 17.349-8.617 20.673zm42.484-28.318c-5.354 5.354-13.816 6.069-19.987 1.943l-.003-.009-5.388-13.089c5.06-4.178 9.72-8.823 13.92-13.865l13.069 5.448c.26.108.523.204.785.305 3.655 6.133 2.773 14.097-2.396 19.267zm28.095-41.947c-3.367 8.077-12.63 11.894-20.71 8.525l-9.874-4.116a104.217 104.217 0 0012.215-29.222l9.845 4.104a15.731 15.731 0 018.551 8.59c1.61 3.91 1.6 8.214-.027 12.119zm.222-99.591c3.332 8.095-.522 17.34-8.617 20.672l-9.864 4.06a104.195 104.195 0 00-12.085-29.277l9.893-4.072c8.076-3.325 17.35.542 20.673 8.617zm-28.317-42.484c5.354 5.354 6.069 13.816 1.943 19.987l-.009.003-13.089 5.388a105.776 105.776 0 00-13.865-13.92c6.752-16.237 5.153-12.299 5.753-13.855 6.133-3.655 14.097-2.772 19.267 2.397zm-41.947-28.095c8.079 3.367 11.893 12.63 8.525 20.71l-4.116 9.875a104.217 104.217 0 00-29.222-12.215l4.104-9.845c3.365-8.077 12.628-11.895 20.709-8.525zM256 15.005c7.571 0 14.062 5.469 15.515 12.74l-.012.027-5.428 13.023A105.518 105.518 0 00256 40.309c-3.239 0-6.443.156-9.608.445-6.735-16.32-5.041-12.311-5.718-13.836 1.758-6.912 8.016-11.913 15.326-11.913zM206.473 24.8c8.093-3.331 17.34.521 20.672 8.617l4.06 9.864a104.222 104.222 0 00-29.277 12.084l-4.072-9.893c-3.331-8.093.522-17.341 8.617-20.672zm-42.484 28.317c5.354-5.354 13.817-6.068 19.988-1.942l.003.008 5.387 13.089a105.83 105.83 0 00-13.92 13.864c-4.741-1.971-12.558-5.252-13.855-5.753-3.654-6.132-2.772-14.096 2.397-19.266zm-28.095 41.947c3.366-8.077 12.629-11.895 20.71-8.525l9.875 4.116a104.217 104.217 0 00-12.215 29.222l-9.845-4.104c-8.079-3.366-11.893-12.629-8.525-20.709zm-.223 99.591c-3.331-8.095.522-17.34 8.617-20.672l9.864-4.06a104.222 104.222 0 0012.084 29.277l-9.893 4.072c-8.092 3.331-17.34-.521-20.672-8.617zm28.318 42.484c-5.354-5.354-6.069-13.817-1.943-19.988a.069.069 0 00.008-.003l13.089-5.387a105.83 105.83 0 0013.864 13.92c-4.017 9.663-5.134 12.252-5.752 13.854-6.132 3.655-14.096 2.773-19.266-2.396zm41.947 28.095c-8.061-3.36-11.884-12.65-8.525-20.71l4.116-9.874a104.217 104.217 0 0029.222 12.215l-4.104 9.845c-3.365 8.076-12.628 11.894-20.709 8.524zm34.549-2.723l.012-.027 5.429-13.023c3.317.318 6.676.486 10.075.486 3.239 0 6.443-.156 9.608-.445l5.371 13.049c.109.266.23.525.346.787-1.758 6.912-8.016 11.913-15.326 11.913-7.571 0-14.062-5.47-15.515-12.74zm148.483 146.395H200.215a7.503 7.503 0 100 15.006h160.562l-20.196 63.337a13.952 13.952 0 01-13.337 9.746H184.756a13.952 13.952 0 01-13.337-9.745l-20.196-63.338h13.917a7.503 7.503 0 100-15.006h-42.108c-4.189 0-7.597-3.408-7.597-7.597s3.408-7.597 7.597-7.597h265.937c4.189 0 7.597 3.408 7.597 7.597s-3.409 7.597-7.598 7.597z"/><path d="M262.879 208.912v-7.648c15.61-3.263 24.733-16.222 26.77-28.336 2.647-15.745-5.586-29.434-20.974-34.874a315.204 315.204 0 01-5.796-2.109v-31.867c4.639 1.259 7.395 3.583 7.654 3.808a7.502 7.502 0 0010.546-.479 7.502 7.502 0 00-.428-10.602c-.396-.366-6.983-6.295-17.772-8.056v-6.272a7.503 7.503 0 10-15.006 0v6.832c-.911.21-1.832.443-2.772.726-10.156 3.059-17.744 11.745-19.802 22.667-1.88 9.976 1.328 19.606 8.371 25.131 3.62 2.84 8.103 5.441 14.203 8.177v40.833c-5.202-.45-8.633-1.814-14.382-5.575a7.503 7.503 0 00-8.215 12.557c8.818 5.769 14.897 7.567 22.597 8.058v7.027c0 4.144 3.359 7.503 7.503 7.503s7.503-3.358 7.503-7.501zm-19.947-82.885c-2.58-2.023-3.713-6.162-2.887-10.545.721-3.823 3.155-8.375 7.829-10.485v24.259c-1.845-1.038-3.521-2.114-4.942-3.229zm31.919 44.413c-1.009 6.003-5.077 12.366-11.972 15.151v-33.674c9.588 3.415 13.375 10.179 11.972 18.523z"/></svg>