<svg height="512" width="512" xmlns="http://www.w3.org/2000/svg"><path d="M470.32 432.317H41.68V176.25c0-11.429 9.265-20.695 20.695-20.695h387.25c11.429 0 20.695 9.265 20.695 20.695z" fill="#f4fbff"/><path d="M81.681 419.653v-210.36c0-7.587 6.151-13.738 13.738-13.738h321.164c7.587 0 13.738 6.151 13.738 13.738v210.36z" fill="#cbe2ff"/><path d="M459.903 476.667H52.097C27.467 476.667 7.5 456.7 7.5 432.07c0-6.857 5.559-12.416 12.416-12.416h472.167c6.857 0 12.416 5.559 12.416 12.416.001 24.63-19.966 44.597-44.596 44.597z" fill="#d8e2f1"/><path d="M492.083 419.653h-50.911v21.69c0 19.509-15.815 35.324-35.324 35.324h54.054c24.63 0 44.597-19.967 44.597-44.597.001-6.858-5.558-12.417-12.416-12.417zm-311.809 0c0 15.744 12.763 28.507 28.507 28.507h94.438c15.744 0 28.507-12.763 28.507-28.507z" fill="#b9cbea"/><path d="M115.654 419.653V48.607c0-7.331 5.943-13.274 13.274-13.274h254.144c7.331 0 13.274 5.943 13.274 13.274v371.046z" fill="#f4fbff"/><path d="M383.072 35.333h-62.945c7.331 0 13.274 5.943 13.274 13.274v371.046h62.945V48.607c0-7.331-5.943-13.274-13.274-13.274z" fill="#e4f6ff"/><path d="M383.072 35.333H128.928c-7.331 0-13.274 5.943-13.274 13.274v36.302h280.692V48.607c0-7.331-5.943-13.274-13.274-13.274z" fill="#ffe07d"/><path d="M383.072 35.333h-62.945c7.331 0 13.274 5.943 13.274 13.274v36.302h62.945V48.607c0-7.331-5.943-13.274-13.274-13.274z" fill="#ffd064"/><circle cx="319.147" cy="60.121" r="7.377"/><circle cx="348.696" cy="60.121" r="7.377"/><path d="M250.207 256.344H170.19c-8.662 0-15.683-7.022-15.683-15.683v-99.219c0-8.662 7.022-15.683 15.683-15.683h80.016c8.662 0 15.683 7.022 15.683 15.683v99.219c.001 8.661-7.021 15.683-15.682 15.683z" fill="#bed8fb"/><path d="M210.199 206.247c-25.366 0-46.957 16.138-55.083 38.704 1.868 6.573 7.902 11.393 15.074 11.393h80.016c7.172 0 13.206-4.82 15.074-11.393-8.125-22.566-29.716-38.704-55.081-38.704z" fill="#407093"/><circle cx="210.199" cy="187.151" fill="#365e7d" r="24.981"/><path d="M154.507 308.645h202.986c4.143 0 7.5-3.358 7.5-7.5s-3.357-7.5-7.5-7.5H154.507c-4.143 0-7.5 3.358-7.5 7.5s3.357 7.5 7.5 7.5zm0 37.065h202.986c4.143 0 7.5-3.358 7.5-7.5s-3.357-7.5-7.5-7.5H154.507c-4.143 0-7.5 3.358-7.5 7.5s3.357 7.5 7.5 7.5zm0 37.065h202.986c4.143 0 7.5-3.358 7.5-7.5s-3.357-7.5-7.5-7.5H154.507c-4.143 0-7.5 3.358-7.5 7.5s3.357 7.5 7.5 7.5zm150.517-164.916h52.469c4.143 0 7.5-3.358 7.5-7.5s-3.357-7.5-7.5-7.5h-52.469a7.5 7.5 0 000 15zm0-38.616h52.469c4.143 0 7.5-3.358 7.5-7.5s-3.357-7.5-7.5-7.5h-52.469a7.5 7.5 0 000 15zM170.19 263.844h80.017c12.783 0 23.184-10.4 23.184-23.184v-99.219c0-12.784-10.4-23.184-23.184-23.184H170.19c-12.783 0-23.184 10.4-23.184 23.184v99.219c.001 12.784 10.401 23.184 23.184 23.184zm80.017-15H170.19c-2.962 0-5.554-1.587-6.99-3.95 5.894-13.954 17.595-24.509 32.057-28.917 4.477 2.33 9.556 3.655 14.942 3.655s10.465-1.325 14.942-3.656c14.461 4.407 26.162 14.963 32.057 28.917-1.438 2.364-4.029 3.951-6.991 3.951zm-40.009-44.212c-9.639 0-17.48-7.842-17.48-17.481s7.842-17.481 17.48-17.481c9.64 0 17.481 7.842 17.481 17.481s-7.841 17.481-17.481 17.481zm-40.008-71.374h80.017c4.513 0 8.184 3.671 8.184 8.184v78.152a65.733 65.733 0 00-20.848-14.947 32.28 32.28 0 005.137-17.496c0-17.91-14.571-32.481-32.481-32.481s-32.48 14.571-32.48 32.481a32.28 32.28 0 005.136 17.496 65.714 65.714 0 00-20.847 14.946v-78.151c-.001-4.514 3.67-8.184 8.182-8.184z"/><path d="M492.084 412.153H477.82V176.25c0-15.547-12.648-28.195-28.195-28.195h-18.141c-4.143 0-7.5 3.358-7.5 7.5s3.357 7.5 7.5 7.5h18.141c7.276 0 13.195 5.919 13.195 13.195v235.903h-25.001v-202.86c0-11.71-9.527-21.237-21.237-21.237h-12.736V48.607c0-11.455-9.319-20.774-20.773-20.774H128.928c-11.454 0-20.773 9.319-20.773 20.774v139.448H95.418c-11.71 0-21.237 9.527-21.237 21.237v202.86h-25V176.25c0-7.276 5.919-13.195 13.194-13.195h18.217c4.143 0 7.5-3.358 7.5-7.5s-3.357-7.5-7.5-7.5H62.375c-15.547 0-28.194 12.648-28.194 28.195v235.903H19.916C8.935 412.153 0 421.088 0 432.07c0 28.727 23.37 52.097 52.097 52.097h407.807c28.727 0 52.097-23.371 52.097-52.097-.001-10.982-8.936-19.917-19.917-19.917zm-75.502-209.098a6.244 6.244 0 016.237 6.237v202.86h-18.974V203.055zM128.928 42.833h254.145a5.78 5.78 0 015.773 5.774v28.802H172.647c-4.143 0-7.5 3.358-7.5 7.5s3.357 7.5 7.5 7.5h216.198v319.744H123.154V92.409h14.013c4.143 0 7.5-3.358 7.5-7.5s-3.357-7.5-7.5-7.5h-14.013V48.607a5.78 5.78 0 015.774-5.774zm193.889 384.32c-3.029 7.885-10.66 13.507-19.599 13.507H208.78c-8.938 0-16.57-5.622-19.599-13.507zM89.181 209.293a6.244 6.244 0 016.237-6.237h12.736v209.098H89.181zm370.722 259.874H52.097C31.642 469.167 15 452.525 15 432.07a4.922 4.922 0 014.916-4.917h153.65c3.461 16.266 17.933 28.507 35.216 28.507h94.438c17.283 0 31.755-12.241 35.216-28.507h153.65a4.922 4.922 0 014.916 4.917c-.002 20.455-16.644 37.097-37.099 37.097z"/></svg>