<svg height="512" width="512" xmlns="http://www.w3.org/2000/svg"><path d="M420.994 111.983c0-8.924-7.234-16.158-16.158-16.158h-55.683c-20.539 0-37.188 16.65-37.188 37.188v41.289h131.19v-40.703c0-8.924-7.234-16.158-16.158-16.158h-.544a5.459 5.459 0 01-5.459-5.458z" fill="#efc984"/><path d="M472.348 289.717L419.19 274.11h-83.217l-53.178 15.608c-19.062 5.595-32.155 23.083-32.155 42.949v84.948H504.5v-84.95c0-19.864-13.092-37.353-32.152-42.948z" fill="#4a80aa"/><path d="M472.348 289.717L419.19 274.11h-62.924l-.046 15.317 53.158 15.606c19.06 5.596 32.152 23.084 32.152 42.948v69.633h62.97v-84.95c0-19.863-13.092-37.352-32.152-42.947z" fill="#407093"/><path d="M407.649 417.615l-19.531-87.084h-21.157l-19.53 87.084z" fill="#dd636e"/><path d="M406.765 288.798v-46.945h-58.412v46.945c0 16.13 29.206 17.563 29.206 17.563s29.206-1.433 29.206-17.563z" fill="#ffddce"/><path d="M443.154 168.884h-11.165c-6.21 0-11.244-5.034-11.244-11.244v-6.153c0-8.089-7.914-13.808-15.594-11.27a87.916 87.916 0 01-55.165.004l-.021-.007c-7.68-2.537-15.592 3.182-15.592 11.27v6.156c0 6.21-5.034 11.244-11.244 11.244h-11.165v18.386a8.507 8.507 0 008.507 8.507c1.482 0 2.688 1.161 2.782 2.641 1.794 28.44 25.414 50.954 54.306 50.954 28.892 0 52.513-22.514 54.306-50.954.093-1.479 1.3-2.641 2.782-2.641a8.507 8.507 0 008.507-8.507z" fill="#ffddce"/><path d="M426.995 117.44h-.544a5.457 5.457 0 01-5.457-5.458c0-8.924-7.234-16.158-16.158-16.158H379.89v78.477h63.265v-40.703c-.001-8.923-7.236-16.158-16.16-16.158z" fill="#eabc6b"/><path d="M431.989 168.884c-6.21 0-11.244-5.034-11.244-11.243v-6.153c0-8.089-7.914-13.808-15.594-11.27a87.887 87.887 0 01-25.262 4.395v60.169c0 4.03-.357 8.062-1.252 11.991-2.708 11.876-9.304 22.267-18.371 29.78a54.316 54.316 0 0017.293 2.819c28.892 0 52.513-22.514 54.306-50.954.093-1.479 1.3-2.641 2.782-2.641a8.507 8.507 0 008.507-8.507v-18.386z" fill="#ffcbbe"/><g fill="#365e7d"><path d="M336.967 270.997l-8.318 3.734c-4.748 2.132-5.894 8.356-2.217 12.039l23.036 23.072a7.956 7.956 0 0010.651.406l18.064-15.089-30.796-23.013a10.339 10.339 0 00-10.42-1.149z"/><path d="M407.716 272.291l-29.533 22.868 16.978 14.516a7.955 7.955 0 0010.682-.309l23.048-22.444c3.767-3.668 2.641-9.981-2.162-12.121l-8.479-3.778a10.332 10.332 0 00-10.534 1.268z"/></g><path d="M483.738 504.032H125.667V398.349H504.5v84.921c0 11.466-9.295 20.762-20.762 20.762z" fill="#ddb7a0"/><path d="M441.153 398.349v94.742c0 6.042-4.898 10.941-10.941 10.941h53.526c11.466 0 20.762-9.295 20.762-20.762v-84.921z" fill="#d6a889"/><path d="M159.332 370.257v-45.654h-56.806v45.654c0 15.686 28.403 17.081 28.403 17.081s28.403-1.394 28.403-17.081z" fill="#ffddce"/><path d="M212.148 283.167a133.18 133.18 0 01-5.608-38.2v-.032c-.013-41.743-33.856-75.576-75.6-75.576-41.743 0-75.587 33.833-75.6 75.576v.032a133.18 133.18 0 01-5.608 38.2 80.974 80.974 0 00-3.411 23.234 33.408 33.408 0 0022.451 31.571 189.55 189.55 0 00124.337 0 33.409 33.409 0 0022.451-31.571 81.01 81.01 0 00-3.412-23.234z" fill="#407093"/><path d="M212.148 283.167a133.186 133.186 0 01-5.608-38.2v-.032c-.013-41.743-33.856-75.576-75.6-75.576a75.29 75.29 0 00-31.632 6.938c25.942 11.972 43.958 38.192 43.967 68.638v.032a133.18 133.18 0 005.608 38.2 80.974 80.974 0 013.411 23.234 33.408 33.408 0 01-22.451 31.571 189.468 189.468 0 01-30.536 7.825 189.555 189.555 0 0093.801-7.825 33.409 33.409 0 0022.451-31.571 80.974 80.974 0 00-3.411-23.234z" fill="#365e7d"/><path d="M63.849 7.511h193.496c12.151 0 22.002 9.851 22.002 22.002v83.017c0 10.586-7.477 19.423-17.437 21.524-1.458.308-2.48 1.629-2.48 3.12v28.487c0 3.458-4.181 5.19-6.627 2.745l-32.934-32.934a3.207 3.207 0 00-2.267-.939H63.849c-12.151 0-22.002-9.851-22.002-22.002V29.513c0-12.151 9.851-22.002 22.002-22.002z" fill="#cbe2ff"/><path d="M257.345 7.511h-63.788c12.151 0 22.002 9.851 22.002 22.002v83.017c0 10.586-7.477 19.423-17.437 21.524a3.04 3.04 0 00-1.095.478h20.575c.85 0 1.666.338 2.267.939l32.934 32.934c2.445 2.445 6.627.713 6.627-2.745v-28.487c0-1.49 1.021-2.812 2.479-3.12 9.96-2.102 17.437-10.938 17.437-21.524V29.513c.001-12.151-9.85-22.002-22.001-22.002z" fill="#bed8fb"/><path d="M223.112 371.15l-63.78-12.144c-10.281 25.564-46.475 25.552-56.739-.018l-.067-.166-63.756 12.33C20.233 376.593 7.5 393.6 7.5 412.92v70.808c0 11.483 9.321 20.785 20.804 20.761l216.652-.439a9.443 9.443 0 009.424-9.443v-81.69c0-19.318-12.732-36.325-31.268-41.767z" fill="#e28086"/><path d="M245.011 504.106a9.444 9.444 0 009.369-9.443v-81.745c0-19.318-12.732-36.325-31.268-41.767l-63.78-12.144c-5.115 12.718-16.642 19.1-28.201 19.16 1.156 9.07 8.006 16.541 17.187 18.289l11.529 2.195c20.402 4.382 31.268 13.708 31.268 33.027v72.855z" fill="#dd636e"/><path d="M395.161 309.675l-16.978-14.516-18.063 15.089a7.932 7.932 0 01-3.941 1.764l10.783 18.519h21.157l10.662-19.107a7.898 7.898 0 01-3.62-1.749z" fill="#e28086"/><path d="M63.85 142.032h151.974l31.677 31.677a11.352 11.352 0 0012.404 2.467 11.347 11.347 0 007.026-10.515v-25.229c11.729-4.039 19.917-15.252 19.917-27.902V29.512c0-16.268-13.234-29.502-29.502-29.502H63.85c-16.268 0-29.502 13.234-29.502 29.502v6.062c0 4.143 3.357 7.5 7.5 7.5s7.5-3.357 7.5-7.5v-6.062c0-7.996 6.506-14.502 14.502-14.502h193.496c7.996 0 14.502 6.506 14.502 14.502v83.018c0 6.815-4.83 12.781-11.484 14.186-4.887 1.03-8.433 5.429-8.433 10.459v19.751l-26.754-26.753a10.632 10.632 0 00-7.574-3.141H63.85c-7.996 0-14.502-6.506-14.502-14.502V70.699c0-4.143-3.357-7.5-7.5-7.5s-7.5 3.357-7.5 7.5v41.831c0 16.267 13.234 29.502 29.502 29.502z"/><path d="M504.5 345.939c4.143 0 7.5-3.357 7.5-7.5v-5.774c0-23.035-15.437-43.654-37.539-50.144l-40.664-11.939a14.932 14.932 0 00-4.016-2.632l-8.48-3.778a17.832 17.832 0 00-7.036-1.546V244.78c13.293-9.812 22.575-24.82 24.73-42.103 6.721-1.899 11.659-8.087 11.659-15.406v-53.672c0-12.57-9.854-22.882-22.244-23.616-1.019-12.113-11.203-21.657-23.575-21.657h-55.683c-24.642 0-44.688 20.047-44.688 44.688v54.257c0 7.32 4.938 13.508 11.659 15.407 2.158 17.281 11.439 32.288 24.73 42.1v17.818c-2.363.045-4.731.56-6.959 1.56l-8.317 3.734a14.919 14.919 0 00-3.985 2.625l-40.91 12.007c-22.104 6.487-37.543 27.108-37.543 50.146v40.729a50.975 50.975 0 00-17.915-9.442c-.659-.193 3.184.583-58.393-11.154v-.162a195.604 195.604 0 0028.736-7.58c20.823-7.229 34.376-28.649 23.765-64.044a125.645 125.645 0 01-5.293-36.081c-.014-45.808-37.292-83.074-83.1-83.074h-.001c-45.807 0-83.085 37.267-83.1 83.106a125.604 125.604 0 01-5.292 36.049c-10.501 35.037 2.632 56.707 23.764 64.044a195.582 195.582 0 0028.713 7.576c-61.312 11.869-57.723 11.133-58.366 11.322C15.074 370.29 0 390.424 0 412.919v70.809c0 15.658 12.681 28.262 28.262 28.262h.058l455.419-.458c15.584 0 28.262-12.678 28.262-28.262V373.501c0-4.143-3.357-7.5-7.5-7.5s-7.5 3.357-7.5 7.5v17.348h-87.667l-13.269-59.164 7.179-12.866a15.546 15.546 0 007.832-4.08l23.048-22.444a14.938 14.938 0 003.383-4.99l32.73 9.609C485.994 301.54 497 316.242 497 332.665v5.774c0 4.143 3.357 7.5 7.5 7.5zM319.464 133.013c0-16.37 13.318-29.688 29.688-29.688h55.683c4.774 0 8.659 3.884 8.659 8.658 0 7.145 5.812 12.957 12.957 12.957h.544c4.774 0 8.659 3.884 8.659 8.658v27.785h-3.666a3.747 3.747 0 01-3.743-3.743v-6.153c0-13.252-13.012-22.5-25.447-18.391-16.27 5.377-34.189 5.378-50.48-.003-12.546-4.147-25.444 5.18-25.444 18.392v6.155a3.748 3.748 0 01-3.744 3.743h-3.665v-28.37zm11.274 64.93c-.344-5.42-4.854-9.666-10.268-9.666a1.008 1.008 0 01-1.007-1.007v-10.887h3.665c10.336 0 18.744-8.408 18.744-18.743v-6.155c0-2.97 2.884-5.09 5.761-4.143 19.306 6.379 40.568 6.377 59.872-.004 2.83-.94 5.739 1.167 5.739 4.148v6.153c0 10.335 8.408 18.743 18.743 18.743h3.666v10.887c0 .555-.452 1.007-1.008 1.007-5.413 0-9.923 4.246-10.267 9.669-1.553 24.631-22.119 43.926-46.821 43.926-24.7.001-45.265-19.294-46.819-43.928zm52.977 125.089h-12.442l-4.829-8.294 11.683-9.759 10.603 9.066zm10.244 67.817H361.12l11.845-52.817h9.148zm-15.857-105.113l-22.248-16.625v-16.176a61.555 61.555 0 0021.705 3.936c7.617 0 14.936-1.39 21.706-3.936v16.413zm-38.063-7.897a2.833 2.833 0 012.858.315l23.194 17.332-10.78 9.005a.467.467 0 01-.18.092 3.17 3.17 0 00-.096.014.456.456 0 01-.32-.114l-22.91-22.946zM71.231 330.888c-18.959-6.583-20.057-26.42-14.314-45.567a140.656 140.656 0 005.923-40.383c.013-37.539 30.562-68.079 68.101-68.079s68.088 30.54 68.1 68.11a140.59 140.59 0 005.924 40.352c5.742 19.152 4.643 38.985-14.315 45.567-38.504 13.367-80.915 13.369-119.419 0zm80.601 23.921v2.652c-8.217 17.68-33.707 17.606-41.805-.161v-2.492a198.758 198.758 0 0041.805.001zm95.048 139.799a1.93 1.93 0 01-1.86 1.93l-.078.004-.015.001a5.468 5.468 0 00-.171.009l-216.467.438h-.026C20.96 496.99 15 491.082 15 483.728v-70.809c0-15.77 10.493-29.897 25.56-34.475l57.775-11.174c14.536 24.56 50.611 24.486 65.166.164l57.833 11.011c15.491 4.711 25.546 18.956 25.546 34.472zm11.26-161.941c0-16.425 11.007-31.127 26.768-35.753l32.988-9.682a14.912 14.912 0 003.23 4.837l23.036 23.071.076.075a15.434 15.434 0 007.478 4.037l7.283 12.508-13.251 59.087H258.14zM497 405.849v77.421c0 7.312-5.949 13.262-13.262 13.262H261.773c.071-.631.107-1.273.107-1.924v-81.69c0-2.373-.165-4.733-.492-7.068L497 405.849zm-96.353-101.892a.453.453 0 01-.314.128 11.062 11.062 0 00-.177-.035.469.469 0 01-.122-.074l-9.974-8.528 22.247-17.226a2.828 2.828 0 012.889-.349l8.395 3.741z"/></svg>