<svg height="512" width="512" xmlns="http://www.w3.org/2000/svg"><path d="M478.214 399.076H33.786c-14.517 0-26.286-11.768-26.286-26.286V34.479c0-14.517 11.768-26.286 26.286-26.286h444.429c14.517 0 26.286 11.768 26.286 26.286v338.312c-.001 14.517-11.769 26.285-26.287 26.285z" fill="#f4fbff"/><path d="M478.214 8.194H414.48c14.517 0 26.286 11.768 26.286 26.286v338.312c0 14.517-11.768 26.285-26.286 26.285h63.734c14.517 0 26.286-11.768 26.286-26.285V34.479c0-14.517-11.768-26.285-26.286-26.285z" fill="#e4f6ff"/><path d="M414.273 314.55H97.727c-14.632 0-26.494-11.862-26.494-26.494V178.244c0-14.632 11.862-26.494 26.494-26.494h316.545c14.632 0 26.494 11.862 26.494 26.494v109.812c0 14.632-11.861 26.494-26.493 26.494z" fill="#ffe07d"/><path d="M478.214 8.194H33.786C19.268 8.194 7.5 19.962 7.5 34.479v45.45h497v-45.45c0-14.517-11.768-26.285-26.286-26.285z" fill="#cbe2ff"/><path d="M440.766 34.479v45.45H504.5v-45.45c0-14.517-11.768-26.286-26.286-26.286H414.48c14.518.001 26.286 11.769 26.286 26.286z" fill="#bed8fb"/><path d="M246.089 318.091a18.456 18.456 0 00-12.904 4.221V210.007c0-10.039-7.807-18.59-17.84-18.947-10.533-.374-19.19 8.053-19.19 18.503v89.714c0-10.45-8.657-18.877-19.19-18.503-10.033.357-17.84 8.907-17.84 18.946v17.842c0-10.45-8.657-18.877-19.19-18.503-10.033.357-17.84 8.907-17.84 18.947v10.256c0-10.449-8.657-18.877-19.19-18.502-10.033.357-17.839 8.907-17.839 18.947v60.017a74.22 74.22 0 006.008 29.253l15.761 37.256a59.455 59.455 0 014.699 23.166v16.457h114.249c.964-14.272 6.024-36.798 14.645-48.301l8.245-11.002a74.214 74.214 0 0014.827-44.508v-53.999c0-9.882-7.547-18.383-17.411-18.955z" fill="#ffddce"/><path d="M177.152 280.768c-3.18.082-6.143.989-8.712 2.505 5.502 3.209 9.201 9.174 9.201 16.004v17.074c0 10.225 8.289 18.515 18.515 18.515v-35.589c0-10.388-8.555-18.778-19.004-18.509zm56.033 41.544V210.007c0-9.335-6.734-17.538-15.985-18.788a18.442 18.442 0 00-10.313 1.564c4.794 2.627 8.283 8.486 8.283 16.78v94.734c0 9.949 8.066 18.015 18.015 18.015zm-74.059-4.75c0-10.388-8.555-18.778-19.003-18.509-3.18.082-6.143.989-8.712 2.505 5.503 3.209 9.201 9.175 9.201 16.004v6.765c0 10.225 8.289 18.515 18.515 18.515zm-56.033-7.809c-3.18.082-6.143.989-8.712 2.505 5.503 3.209 9.201 9.174 9.201 16.003v4.043c0 10.225 8.289 18.515 18.515 18.515v-22.558c-.001-10.387-8.555-18.777-19.004-18.508z" fill="#ffcbbe"/><path d="M109.075 503.806h120.886c6.395 0 11.58-5.185 11.58-11.58v-20.932c0-6.395-5.185-11.58-11.58-11.58H109.075c-6.395 0-11.58 5.185-11.58 11.58v20.932c0 6.396 5.184 11.58 11.58 11.58z" fill="#e28086"/><path d="M229.961 459.714h-63.646c6.396 0 11.58 5.185 11.58 11.58v20.932c0 6.396-5.185 11.58-11.58 11.58h63.646c6.395 0 11.58-5.185 11.58-11.58v-20.932c0-6.396-5.185-11.58-11.58-11.58z" fill="#dd636e"/><path d="M148.116 191.295v66.904c0 7.913-8.768 13.173-16.708 5.532a7.497 7.497 0 00-10.567.007 7.5 7.5 0 00-.032 10.606c16.733 16.872 42.308 5.496 42.308-16.146v-66.904a7.5 7.5 0 00-15.001.001zm210.977-7.5h-24.315a7.499 7.499 0 00-7.5 7.5v83.71c0 4.128 3.346 7.5 7.5 7.5h.033s22.364-.1 28.529-.1c16.56 0 30.032-13.473 30.032-30.032 0-10.437-5.355-19.644-13.459-25.029a26.631 26.631 0 005.941-16.788c0-14.756-12.004-26.761-26.761-26.761zm0 15c6.485 0 11.762 5.276 11.762 11.762s-5.276 11.762-11.762 11.762c-1.326 0 4.633-.01-16.815.022v-23.546zm4.247 68.61c-3.841 0-13.957.038-21.062.067v-30.101c14.767-.06 7.536-.016 21.062-.031 8.289 0 15.032 6.743 15.032 15.032s-6.743 15.033-15.032 15.033z"/><circle cx="370.137" cy="42.69" r="7.5"/><circle cx="401.137" cy="42.69" r="7.5"/><circle cx="432.137" cy="42.69" r="7.5"/><path d="M478.215.693H33.785C15.156.693 0 15.85 0 34.479v338.312c0 18.629 15.156 33.785 33.785 33.785h16.213c4.143 0 7.5-3.357 7.5-7.5s-3.357-7.5-7.5-7.5H33.785c-10.358 0-18.785-8.427-18.785-18.785V87.43h482v285.361c0 10.358-8.427 18.785-18.785 18.785H298.562c-4.143 0-7.5 3.357-7.5 7.5s3.357 7.5 7.5 7.5h179.652c18.629 0 33.785-15.156 33.785-33.785V34.479C512 15.85 496.844.693 478.215.693zM15 72.43V34.48c0-10.358 8.427-18.786 18.785-18.786h444.43c10.358 0 18.785 8.428 18.785 18.786v37.95z"/><path d="M414.272 322.05c18.744 0 33.994-15.25 33.994-33.994v-37.389c0-4.143-3.357-7.5-7.5-7.5s-7.5 3.357-7.5 7.5v37.389c0 10.474-8.521 18.994-18.994 18.994H240.686v-25.329c2.829.51 5.74.784 8.714.784 27.215 0 49.355-22.141 49.355-49.355s-22.141-49.354-49.355-49.354a49.038 49.038 0 00-20.1 4.288 25.638 25.638 0 00-13.687-4.519c-14.654-.566-26.957 11.194-26.957 25.998v66.128c-14.947-6.998-33.017 1.604-36.479 18.551-12.575-6.257-28.356-1.396-34.862 11.913-8.235-5.145-18.574-5.13-26.651-.459-7.193-2.865-11.93-9.775-11.93-17.639V178.244c0-10.474 8.521-18.994 18.994-18.994h316.545c10.474 0 18.994 8.521 18.994 18.994v37.374c0 4.143 3.357 7.5 7.5 7.5s7.5-3.357 7.5-7.5v-37.374c0-18.744-15.25-33.994-33.994-33.994H97.728c-18.744 0-33.994 15.25-33.994 33.994v109.812c0 12.177 6.349 23.077 16.404 29.115a26.914 26.914 0 00-2.571 11.534v60.018c0 25.002 10.109 37.628 21.152 66.57-5.242 3.405-8.723 9.299-8.723 16.001v20.933c0 10.521 8.56 19.08 19.08 19.08h120.886c10.521 0 19.08-8.56 19.08-19.08v-20.933c0-5.585-2.427-10.602-6.265-14.094 6.273-12.84 28.224-29.587 28.224-66.156v-53.999c0-5.551-1.688-10.72-4.572-14.994h147.843zm-130.517-88.901c0 18.943-15.412 34.355-34.355 34.355a34.22 34.22 0 01-8.714-1.128v-56.37c0-3.376-.618-6.598-1.737-9.563a34.114 34.114 0 0110.451-1.649c18.943.001 34.355 15.412 34.355 34.355zm-49.714 259.078c0 2.25-1.83 4.08-4.08 4.08H109.075c-2.25 0-4.08-1.83-4.08-4.08v-20.933a4.085 4.085 0 014.076-4.08h120.89c2.25 0 4.08 1.83 4.08 4.08zM256 391.043c0 32.352-18.626 41.971-27.453 61.171H113.703c-12.426-31.981-21.136-42.388-21.136-63.491v-60.018c0-9.944 11.566-15.221 18.663-8.37a10.922 10.922 0 013.367 7.927c0 4.143 3.357 7.5 7.5 7.5s7.5-3.357 7.5-7.5v-10.256c0-9.969 11.577-15.208 18.662-8.371a10.927 10.927 0 013.367 7.928c0 4.143 3.357 7.5 7.5 7.5s7.5-3.357 7.5-7.5v-17.842c0-9.966 11.579-15.209 18.662-8.371a10.925 10.925 0 013.367 7.927c0 4.143 3.357 7.5 7.5 7.5s7.5-3.357 7.5-7.5v-89.714c0-6.222 5.158-11.249 11.424-11.008 5.849.208 10.606 5.346 10.606 11.452v112.305c0 6.352 7.417 9.81 12.284 5.775a11.036 11.036 0 017.685-2.509c5.802.337 10.346 5.373 10.346 11.466z"/></svg>